<svg width="18" height="25" viewBox="0 0 18 25" fill="none" xmlns="http://www.w3.org/2000/svg">
<path d="M2 22.5C1.45 22.5 0.979 22.3043 0.587 21.913C0.195667 21.521 0 21.05 0 20.5V6.5C0 5.95 0.195667 5.47933 0.587 5.088C0.979 4.696 1.45 4.5 2 4.5H3V2.5H5V4.5H13V2.5H15V4.5H16C16.55 4.5 17.021 4.696 17.413 5.088C17.8043 5.47933 18 5.95 18 6.5V20.5C18 21.05 17.8043 21.521 17.413 21.913C17.021 22.3043 16.55 22.5 16 22.5H2ZM2 20.5H16V10.5H2V20.5ZM2 8.5H16V6.5H2V8.5ZM9 14.5C8.71667 14.5 8.47933 14.404 8.288 14.212C8.096 14.0207 8 13.7833 8 13.5C8 13.2167 8.096 12.979 8.288 12.787C8.47933 12.5957 8.71667 12.5 9 12.5C9.28333 12.5 9.521 12.5957 9.713 12.787C9.90433 12.979 10 13.2167 10 13.5C10 13.7833 9.90433 14.0207 9.713 14.212C9.521 14.404 9.28333 14.5 9 14.5ZM5 14.5C4.71667 14.5 4.479 14.404 4.287 14.212C4.09567 14.0207 4 13.7833 4 13.5C4 13.2167 4.09567 12.979 4.287 12.787C4.479 12.5957 4.71667 12.5 5 12.5C5.28333 12.5 5.521 12.5957 5.713 12.787C5.90433 12.979 6 13.2167 6 13.5C6 13.7833 5.90433 14.0207 5.713 14.212C5.521 14.404 5.28333 14.5 5 14.5ZM13 14.5C12.7167 14.5 12.4793 14.404 12.288 14.212C12.096 14.0207 12 13.7833 12 13.5C12 13.2167 12.096 12.979 12.288 12.787C12.4793 12.5957 12.7167 12.5 13 12.5C13.2833 12.5 13.5207 12.5957 13.712 12.787C13.904 12.979 14 13.2167 14 13.5C14 13.7833 13.904 14.0207 13.712 14.212C13.5207 14.404 13.2833 14.5 13 14.5ZM9 18.5C8.71667 18.5 8.47933 18.404 8.288 18.212C8.096 18.0207 8 17.7833 8 17.5C8 17.2167 8.096 16.9793 8.288 16.788C8.47933 16.596 8.71667 16.5 9 16.5C9.28333 16.5 9.521 16.596 9.713 16.788C9.90433 16.9793 10 17.2167 10 17.5C10 17.7833 9.90433 18.0207 9.713 18.212C9.521 18.404 9.28333 18.5 9 18.5ZM5 18.5C4.71667 18.5 4.479 18.404 4.287 18.212C4.09567 18.0207 4 17.7833 4 17.5C4 17.2167 4.09567 16.9793 4.287 16.788C4.479 16.596 4.71667 16.5 5 16.5C5.28333 16.5 5.521 16.596 5.713 16.788C5.90433 16.9793 6 17.2167 6 17.5C6 17.7833 5.90433 18.0207 5.713 18.212C5.521 18.404 5.28333 18.5 5 18.5ZM13 18.5C12.7167 18.5 12.4793 18.404 12.288 18.212C12.096 18.0207 12 17.7833 12 17.5C12 17.2167 12.096 16.9793 12.288 16.788C12.4793 16.596 12.7167 16.5 13 16.5C13.2833 16.5 13.5207 16.596 13.712 16.788C13.904 16.9793 14 17.2167 14 17.5C14 17.7833 13.904 18.0207 13.712 18.212C13.5207 18.404 13.2833 18.5 13 18.5Z" fill="white" fill-opacity="0.9"/>
</svg>
